<?xml version="1.0" encoding="UTF-8"?>
<svg xmlns="http://www.w3.org/2000/svg" xmlns:xlink="http://www.w3.org/1999/xlink" width="50pt" height="50pt" viewBox="0 0 50 50" version="1.1">
<g id="surface2689373">
<path style=" stroke:none;fill-rule:nonzero;fill:rgb(18.823529%,19.215686%,72.156863%);fill-opacity:1;" d="M 9 4 C 6.25 4 4 6.25 4 9 L 4 41 C 4 43.75 6.25 46 9 46 L 41 46 C 43.75 46 46 43.75 46 41 L 46 9 C 46 6.25 43.75 4 41 4 Z M 9 6 L 15.574219 6 C 12.117188 9.597656 10 14.324219 10 19.5 C 10 24.863281 12.269531 29.75 15.949219 33.386719 C 15.816406 33.261719 15.988281 33.484375 16.003906 33.875 C 16.023438 34.28125 15.960938 34.835938 15.796875 35.386719 C 15.472656 36.488281 14.785156 37.503906 13.683594 37.871094 C 13.253906 38.015625 12.972656 38.429688 13 38.882812 C 13.03125 39.335938 13.359375 39.710938 13.804688 39.800781 C 16.5625 40.351562 18.515625 39.523438 19.957031 38.859375 C 21.394531 38.199219 22.171875 37.757812 23.625 38.34375 C 23.628906 38.34375 23.632812 38.347656 23.636719 38.347656 C 26.359375 39.410156 29.355469 40 32.5 40 C 36.699219 40 40.632812 38.949219 44 37.121094 L 44 41 C 44 42.667969 42.667969 44 41 44 L 9 44 C 7.332031 44 6 42.667969 6 41 L 6 9 C 6 7.332031 7.332031 6 9 6 Z M 18.496094 6 L 41 6 C 42.667969 6 44 7.332031 44 9 L 44 34.804688 C 40.726562 36.8125 36.773438 38 32.5 38 C 29.609375 38 26.863281 37.460938 24.375 36.488281 C 22.261719 35.632812 20.539062 36.390625 19.121094 37.042969 C 18.351562 37.394531 17.59375 37.6875 16.734375 37.851562 C 17.160156 37.246094 17.523438 36.601562 17.714844 35.957031 C 17.941406 35.195312 18.03125 34.453125 18.003906 33.789062 C 17.976562 33.125 17.917969 32.519531 17.355469 31.96875 C 14.015625 28.664062 12 24.296875 12 19.5 C 12 14.175781 14.484375 9.386719 18.496094 6 Z M 32.984375 14.988281 C 32.433594 14.996094 31.992188 15.449219 32 16 L 32 25 C 31.996094 25.359375 32.183594 25.695312 32.496094 25.878906 C 32.808594 26.058594 33.191406 26.058594 33.503906 25.878906 C 33.816406 25.695312 34.003906 25.359375 34 25 L 34 16 C 34.003906 15.730469 33.898438 15.46875 33.707031 15.277344 C 33.515625 15.085938 33.253906 14.980469 32.984375 14.988281 Z M 18 16 C 17.640625 15.996094 17.304688 16.183594 17.121094 16.496094 C 16.941406 16.808594 16.941406 17.191406 17.121094 17.503906 C 17.304688 17.816406 17.640625 18.003906 18 18 L 21.199219 18 L 17.152344 24.46875 C 16.960938 24.777344 16.949219 25.167969 17.125 25.484375 C 17.300781 25.800781 17.636719 26 18 26 L 23 26 C 23.359375 26.003906 23.695312 25.816406 23.878906 25.503906 C 24.058594 25.191406 24.058594 24.808594 23.878906 24.496094 C 23.695312 24.183594 23.359375 23.996094 23 24 L 19.804688 24 L 23.847656 17.527344 C 24.039062 17.222656 24.050781 16.832031 23.875 16.515625 C 23.699219 16.199219 23.363281 16 23 16 Z M 29.984375 18.988281 C 29.652344 18.992188 29.34375 19.164062 29.160156 19.445312 C 28.664062 19.171875 28.101562 19 27.5 19 C 25.578125 19 24 20.578125 24 22.5 C 24 24.421875 25.578125 26 27.5 26 C 28.101562 26 28.664062 25.828125 29.160156 25.558594 C 29.402344 25.929688 29.863281 26.101562 30.289062 25.972656 C 30.714844 25.839844 31.007812 25.445312 31 25 L 31 20 C 31.003906 19.730469 30.898438 19.46875 30.707031 19.277344 C 30.515625 19.085938 30.253906 18.980469 29.984375 18.988281 Z M 38.5 19 C 36.578125 19 35 20.578125 35 22.5 C 35 24.421875 36.578125 26 38.5 26 C 40.421875 26 42 24.421875 42 22.5 C 42 20.578125 40.421875 19 38.5 19 Z M 27.5 21 C 28.339844 21 29 21.660156 29 22.5 C 29 23.339844 28.339844 24 27.5 24 C 26.660156 24 26 23.339844 26 22.5 C 26 21.660156 26.660156 21 27.5 21 Z M 38.5 21 C 39.339844 21 40 21.660156 40 22.5 C 40 23.339844 39.339844 24 38.5 24 C 37.660156 24 37 23.339844 37 22.5 C 37 21.660156 37.660156 21 38.5 21 Z M 38.5 21 "/>
</g>
</svg>
